inDegrees=yes
name=ik_S48_A05_T02
DataType=double
version=3
OpenSimVersion=4.3-2021-08-27-4bc7ad9
endheader
time	pelvis_tilt	pelvis_list	pelvis_rotation	pelvis_tx	pelvis_ty	pelvis_tz	hip_flexion_r	hip_adduction_r	hip_rotation_r	knee_angle_r	knee_angle_r_beta	ankle_angle_r	subtalar_angle_r	mtp_angle_r	hip_flexion_l	hip_adduction_l	hip_rotation_l	knee_angle_l	knee_angle_l_beta	ankle_angle_l	subtalar_angle_l	mtp_angle_l	lumbar_extension	lumbar_bending	lumbar_rotation	arm_flex_r	arm_add_r	arm_rot_r	elbow_flex_r	pro_sup_r	wrist_flex_r	wrist_dev_r	arm_flex_l	arm_add_l	arm_rot_l	elbow_flex_l	pro_sup_l	wrist_flex_l	wrist_dev_l
21.79999999999962	-3.969980985329244	-3.33379396001068	37.82702785564639	0	0.9399999999999999	0	24.63344149521436	-8.755319578822636	-7.604014843595205	27.47310847055253	0.4794961985686853	0	0	0	24.63344149521436	-8.755319578822636	-7.604014843595205	27.47310847055253	0.4794961985686853	0	0	0	-2.405851758152537	-4.019931995063221	-1.459303050966522	72.62199901080787	33.89438154037658	11.01401314303534	16.12409586833689	109.9777938013717	0	0	38.16410843043683	-9.025985735493206	0.9107744344051948	20.32290711723376	124.3391589020781	0	0
21.81999999999962	-3.969705929225519	-3.344023254320302	37.84898745216495	0	0.9399999999999999	0	24.62485298822886	-8.754526216320869	-7.602484340244848	27.46406172873514	0.4793383031373938	0	0	0	24.62485298822886	-8.754526216320869	-7.602484340244848	27.46406172873514	0.4793383031373938	0	0	0	-2.410722143897745	-4.029887471667817	-1.453315147414803	72.61982426186884	33.90791094681382	11.02655043672971	16.06442130997662	110.0013281874639	0	0	38.17755910841932	-9.019739488920967	0.9120240911875854	20.29682266325564	124.3565916324527	0	0
21.83999999999962	-3.975320046513834	-3.349956718014068	37.87045888888851	0	0.9399999999999999	0	24.59998864277618	-8.750945022104929	-7.597222317900366	27.43840350128042	0.4788904825880834	0	0	0	24.59998864277618	-8.750945022104929	-7.597222317900366	27.43840350128042	0.4788904825880834	0	0	0	-2.416573951877932	-4.034094421296423	-1.456816701440323	72.60854527191871	33.95603075391321	11.03763925448802	15.92126704369073	110.0113400565992	0	0	38.20674577896897	-9.009512041661123	0.9238216467895035	20.25322144020613	124.386205105319	0	0
21.85999999999962	-4.001088893634502	-3.376962779522427	37.87749095121962	0	0.9399999999999999	0	24.55402338272748	-8.748832436801701	-7.590456762050616	27.38952487405117	0.478037389609078	0	0	0	24.55402338272748	-8.748832436801701	-7.590456762050616	27.38952487405117	0.478037389609078	0	0	0	-2.449143478387594	-4.046020641699551	-1.467360289741152	72.6821151378155	34.00122443851112	11.03279571622795	15.64951326246755	109.8741087751558	0	0	38.25158139749863	-9.020728873082414	0.9030922946515879	20.3530755592175	124.3955511319447	0	0
21.87999999999962	-3.999118607814858	-3.384577550590897	37.9091603335623	0	0.9399999999999999	0	24.55761123186178	-8.749536651101993	-7.59133114208418	27.39321460049528	0.4781017874840258	0	0	0	24.55761123186178	-8.749536651101993	-7.59133114208418	27.39321460049528	0.4781017874840258	0	0	0	-2.453541112715762	-4.051164378510329	-1.48772629557029	72.66134431346811	34.12853913636631	11.1814245968269	15.4800906924326	109.6936862352463	0	0	38.27247500821762	-9.025376352229829	0.9381755834316218	20.37126694477622	124.4013994301572	0	0
21.89999999999962	-3.998206056345191	-3.392583959507319	37.93006210727139	0	0.9399999999999999	0	24.56679940064997	-8.751349559420985	-7.593577819370204	27.40261752732302	0.478265899516494	0	0	0	24.56679940064997	-8.751349559420985	-7.593577819370204	27.40261752732302	0.478265899516494	0	0	0	-2.460182259727287	-4.054149367369178	-1.521602561706646	72.64856926783609	34.23719894093744	11.40481909285142	15.26574033439728	109.3868451259222	0	0	38.25890289352395	-9.024944439733154	0.9690812020525642	20.38152130113878	124.3632097099908	0	0
21.91999999999962	-4.000098902902357	-3.424146156483983	37.97156606531024	0	0.9399999999999999	0	24.56897798519101	-8.751775280881605	-7.594107415793457	27.40486414317944	0.4783051103602159	0	0	0	24.56897798519101	-8.751775280881605	-7.594107415793457	27.40486414317944	0.4783051103602159	0	0	0	-2.481104830935632	-4.077866626809473	-1.517325962569441	72.62256121620827	34.26229825842076	11.52697916663633	15.21949047945959	109.3990027009871	0	0	38.30448004409086	-9.046718716742243	1.038829493960628	20.39241338595201	124.3885028559	0	0
21.93999999999962	-4.014737903137218	-3.462322890057032	38.04476944736882	0	0.9399999999999999	0	24.57140999918977	-8.752245128470868	-7.594694516228824	27.40739532534618	0.4783492878229933	0	0	0	24.57140999918977	-8.752245128470868	-7.594694516228824	27.40739532534618	0.4783492878229933	0	0	0	-2.516540480056455	-4.098319227655574	-1.518250326563262	72.53045562192675	34.33835782460854	11.72816334946284	15.14338434370747	109.418394617681	0	0	38.38235627033225	-9.025395942114912	1.243096366478649	20.40513230564589	124.3637927700727	0	0
21.95999999999962	-4.032024913979259	-3.456416079403075	38.06460366266241	0	0.9399999999999999	0	24.56600953044309	-8.750471659206056	-7.59291268257771	27.40210371946624	0.4782569318776705	0	0	0	24.56600953044309	-8.750471659206056	-7.59291268257771	27.40210371946624	0.4782569318776705	0	0	0	-2.526016463448649	-4.083714146364088	-1.514283041092092	72.52574509120144	34.29838737720441	11.78839048051896	14.93434540655738	109.5736161145156	0	0	38.40832795504533	-8.978454299205962	1.253863267656146	20.36641691801739	124.3211663587542	0	0
21.97999999999962	-4.034815606141445	-3.467914535770892	38.10650253492543	0	0.9399999999999999	0	24.57307251210644	-8.751865866566407	-7.594640123229521	27.4093281780567	0.478383022466748	0	0	0	24.57307251210644	-8.751865866566407	-7.594640123229521	27.4093281780567	0.478383022466748	0	0	0	-2.536730723920326	-4.088827043112013	-1.529590099473033	72.34138136955697	34.39505857292244	11.8204037980156	14.77890633814868	109.9389258904463	0	0	38.44169021445993	-8.952597993202893	1.266934060199492	20.37482314298602	124.3068765624253	0	0
21.99999999999962	-4.041328123949983	-3.486447933985068	38.1197360955113	0	0.9399999999999999	0	24.58276734143351	-8.753771986939213	-7.597005772032633	27.41927136281206	0.4785565637788631	0	0	0	24.58276734143351	-8.753771986939213	-7.597005772032633	27.41927136281206	0.4785565637788631	0	0	0	-2.554872264316867	-4.097097880650983	-1.540524142971623	72.25470048976757	34.44233615908814	11.85059464860531	14.19836493843916	110.3679308146016	0	0	38.47547096000195	-8.956840063660554	1.278444051795763	20.37675929188736	124.3153778007198	0	0
22.01999999999962	-4.04232247920479	-3.499920780298515	38.14352565253319	0	0.9399999999999999	0	24.58641150105236	-8.754484608937329	-7.597892146066911	27.4230236098112	0.4786220528433461	0	0	0	24.58641150105236	-8.754484608937329	-7.597892146066911	27.4230236098112	0.4786220528433461	0	0	0	-2.564412048202053	-4.106491467292093	-1.541781845178959	72.11778208457945	34.48667056530009	11.8880227797905	14.02086914689643	110.4176874434493	0	0	38.5084397456447	-8.956502487501108	1.312530945223996	20.38140973976637	124.3073346690832	0	0
22.03999999999962	-4.04587538083192	-3.517243396916588	38.14956335289151	0	0.9399999999999999	0	24.59340190922741	-8.755860478542543	-7.599599360755601	27.43017959393713	0.4787469483275641	0	0	0	24.59340190922741	-8.755860478542543	-7.599599360755601	27.43017959393713	0.4787469483275641	0	0	0	-2.578372023819094	-4.117392877079046	-1.53690974500189	71.9988272628086	34.54289352654414	11.93087352170041	13.69055746745295	110.4064535957836	0	0	38.52545548587927	-8.931235777659021	1.385276481369191	20.37690336471827	124.236488298507	0	0
22.05999999999962	-4.063962534656133	-3.555008274088568	38.17118079312746	0	0.9399999999999999	0	24.59655219060482	-8.756475808304261	-7.600365213282239	27.43342341848858	0.478803563746344	0	0	0	24.59655219060482	-8.756475808304261	-7.600365213282239	27.43342341848858	0.478803563746344	0	0	0	-2.615728721201878	-4.136426062294358	-1.523755487529983	71.89752162551746	34.54927911557886	11.97703578967201	13.53080107095774	110.427677087217	0	0	38.59341347858734	-8.929745087517125	1.481440694697859	20.39150960855085	124.2064640505473	0	0
22.07999999999962	-4.069181177166588	-3.569922141990371	38.18541890086391	0	0.9399999999999999	0	24.6002535585283	-8.757197551218939	-7.601264143604352	27.43723916242637	0.4788701610414713	0	0	0	24.6002535585283	-8.757197551218939	-7.601264143604352	27.43723916242637	0.4788701610414713	0	0	0	-2.629215030521509	-4.144806124219559	-1.518748877864684	71.76142196228614	34.5512656741867	12.04669992394526	13.31326579096792	110.5111555309112	0	0	38.61664879920491	-8.930125339145146	1.52783551865453	20.39942747136474	124.1575122678919	0	0
22.09999999999962	-4.076144665381128	-3.587697292878385	38.19882589165929	0	0.9399999999999999	0	24.61027577445646	-8.75917110034473	-7.603713166957357	27.44748163069185	0.4790489258362351	0	0	0	24.61027577445646	-8.75917110034473	-7.603713166957357	27.44748163069185	0.4790489258362351	0	0	0	-2.646371225281391	-4.153676642949572	-1.512449331888203	71.64926387366806	34.52310153994814	12.02477150758301	13.04113054936928	110.8569385987259	0	0	38.63613857321248	-8.910367322850178	1.523044290754857	20.39744508505207	124.1348683660514	0	0
22.11999999999962	-4.083580637440116	-3.597620924341725	38.22973041380668	0	0.9399999999999999	0	24.61588978535099	-8.760268416749179	-7.605078936976434	27.45325106533879	0.4791496214668028	0	0	0	24.61588978535099	-8.760268416749179	-7.605078936976434	27.45325106533879	0.4791496214668028	0	0	0	-2.658687415656236	-4.156515580395507	-1.507560358090343	71.54222149441783	34.49410625993497	12.0164369480276	12.88197653507027	111.1509276229008	0	0	38.66702898785089	-8.89030082928608	1.520729825103782	20.43285202349128	124.1076575090907	0	0
22.13999999999962	-4.086777839310017	-3.619450383460837	38.24444483580338	0	0.9399999999999999	0	24.62565041641364	-8.762185414594969	-7.607460851342398	27.46323494587374	0.4793238730542635	0	0	0	24.62565041641364	-8.762185414594969	-7.607460851342398	27.46323494587374	0.4793238730542635	0	0	0	-2.676156629529723	-4.169380561669779	-1.517732659761307	71.43248437808269	34.48491967565766	12.085929569222	12.69747502921406	111.5927268479942	0	0	38.66644143525028	-8.912858140310984	1.506878101580579	20.49358668137105	124.1070701843562	0	0
22.15999999999962	-4.095672777352797	-3.629752290030889	38.26502333836819	0	0.9399999999999999	0	24.63169878343664	-8.763370355460737	-7.608934805952395	27.46943022412226	0.4794320010577773	0	0	0	24.63169878343664	-8.763370355460737	-7.608934805952395	27.46943022412226	0.4794320010577773	0	0	0	-2.690766274334538	-4.169946707899288	-1.530360662169155	71.28388909070689	34.46673400729983	12.25678418385901	12.56577094221648	111.8486981206589	0	0	38.69524092448611	-8.909040584522456	1.464805533979384	20.51301288304731	124.0790739121785	0	0
22.17999999999962	-4.09765351514295	-3.671029042640568	38.28448669365033	0	0.9399999999999999	0	24.63494416360322	-8.764004397933274	-7.609724379641498	27.47276129429741	0.4794901391999487	0	0	0	24.63494416360322	-8.764004397933274	-7.609724379641498	27.47276129429741	0.4794901391999487	0	0	0	-2.718783412041194	-4.199669107335446	-1.541140763133486	71.18398822753301	34.49872429915669	12.38741371507378	12.63972327990083	111.8110352845426	0	0	38.73762343246873	-8.963430321345676	1.486135631590097	20.54898844331111	124.0984929327601	0	0
22.19999999999962	-4.094881392566581	-3.695075862008315	38.31174545243314	0	0.9399999999999999	0	24.63851837725132	-8.764702231814018	-7.610593673808522	27.47643058924605	0.4795541804780293	0	0	0	24.63851837725132	-8.764702231814018	-7.610593673808522	27.47643058924605	0.4795541804780293	0	0	0	-2.73246693019114	-4.218701789335686	-1.553198815396597	71.01580052047625	34.50544004192308	12.5931814841119	12.57345029349839	111.860065752533	0	0	38.76168987760998	-8.988820193121265	1.481416060964362	20.57526881901278	124.0774376484145	0	0
22.21999999999962	-4.094759805933225	-3.694676001883875	38.33354929992542	0	0.9399999999999999	0	24.64540995211476	-8.766053220613903	-7.612274110799336	27.48347884611398	0.4796771957669009	0	0	0	24.64540995211476	-8.766053220613903	-7.612274110799336	27.48347884611398	0.4796771957669009	0	0	0	-2.734704825451567	-4.214242744864867	-1.590531188421316	70.74812606059291	34.56671102850327	12.96482110959142	12.74065566904281	111.6783398314342	0	0	38.72634314852296	-8.98008095492963	1.445357899663864	20.60338005895269	124.0265395525597	0	0
